# xmcd
#
# Track frame offsets:
# 150
# 13503
# 29200
# 45305
# 62953
# 72911
# 93535
# 112838
# 126525
# 140546
#
# Disc length: 2130 seconds
#
#
# Revision: 1
# Processed by: cddbd v1.5.2PL0 Copyright (c) Steve Scherf et al.
# Submitted via: FreeRIP 2.951 
#
DISCID=9008500a
DTITLE=Keb' Mo' - Keb' Mo' - Moonlight,Mistletoe and You
DYEAR=2019
DGENRE=Jazz
TTITLE0=Please Come Home for Christmas
TTITLE1=Moonlight, Milstletoe and You
TTITLE2=Better Everyday
TTITLE3=Santa Claus, Santa Claus
TTITLE4=Chistmas Is Annoying
TTITLE5=Merry, Merry Christmas
TTITLE6=I've Got My Love to Keep Me Warm
TTITLE7=Santa Claus Blues
TTITLE8=When the Children Sing
TTITLE9=One More Year With You
EXTD=Audio CD (18. Oktober 2019]\nErscheinungsdatum: 18. Oktober 2019\nAnzahl Disks/Tonträger: 1\nLabel: Concord Records (Universal Music]\nASIN: B07W3RR9DW
EXTT0=
EXTT1=
EXTT2=
EXTT3=
EXTT4=
EXTT5=
EXTT6=
EXTT7=
EXTT8=
EXTT9=
PLAYORDER=
